<?xml version="1.0" standalone="no"?>
<!DOCTYPE svg PUBLIC "-//W3C//DTD SVG 20010904//EN"
 "http://www.w3.org/TR/2001/REC-SVG-20010904/DTD/svg10.dtd">
<svg version="1.0" xmlns="http://www.w3.org/2000/svg"
 width="260.000000pt" height="260.000000pt" viewBox="0 0 260.000000 260.000000"
 preserveAspectRatio="xMidYMid meet">
<metadata>
Created by potrace 1.11, written by Peter Selinger 2001-2013
</metadata>
<g transform="translate(0.000000,260.000000) scale(0.100000,-0.100000)"
fill="#000000" stroke="none">
<path d="M740 2186 c-190 -41 -403 -168 -412 -246 -5 -43 55 -39 233 19 183
59 271 76 347 67 183 -22 272 -156 272 -410 -1 -181 -56 -332 -160 -436 -84
-84 -142 -104 -280 -97 -158 9 -154 6 -146 89 6 61 26 167 95 488 43 201 10
298 -78 224 -64 -53 -190 -382 -234 -609 -18 -94 -25 -114 -37 -109 -38 14
-151 36 -165 30 -43 -16 26 -113 123 -171 41 -25 51 -36 56 -65 8 -50 31 -78
74 -90 51 -14 92 -12 125 5 24 12 36 12 95 0 86 -19 139 -19 247 0 214 38 377
161 471 360 55 115 76 212 76 355 1 150 -17 233 -70 334 -66 125 -177 212
-322 252 -80 21 -232 26 -310 10z"/>
<path d="M1775 2140 c-169 -25 -355 -123 -355 -186 0 -46 32 -49 181 -13 161
39 308 46 372 17 l37 -17 -25 -66 c-68 -182 -144 -479 -185 -722 -16 -96 -31
-177 -32 -178 -2 -2 -66 -26 -143 -55 -226 -85 -351 -154 -381 -212 -24 -46
-15 -126 20 -178 68 -102 248 -154 407 -116 124 29 216 111 289 260 27 54 59
130 71 170 l22 71 116 57 c198 98 283 185 266 274 -8 47 -32 44 -95 -13 -46
-41 -238 -148 -248 -139 -2 2 17 107 42 232 100 507 122 683 92 729 -47 71
-267 113 -451 85z m-49 -1387 c-4 -21 -22 -71 -41 -110 -41 -88 -78 -117 -140
-107 -55 8 -105 34 -128 65 -23 32 -16 60 21 85 28 18 256 103 281 103 10 1
12 -8 7 -36z"/>
</g>
</svg>
